<svg width="65" height="65" viewBox="0 0 65 65" fill="none" xmlns="http://www.w3.org/2000/svg">
<circle cx="32.5" cy="32.5" r="32.5" fill="white"/>
<g clip-path="url(#clip0_1_271)">
<path d="M19.1879 29.3045C19.3295 29.3053 19.4655 29.2498 19.566 29.1501L21.6959 27.0202C21.9047 26.8114 21.9047 26.4728 21.6959 26.264C21.4871 26.0552 21.1486 26.0552 20.9398 26.264L18.8099 28.394C18.709 28.4939 18.6523 28.63 18.6523 28.772C18.6523 28.914 18.709 29.0501 18.8099 29.1501C18.9103 29.2498 19.0464 29.3053 19.1879 29.3045Z" fill="#D80027"/>
<path d="M19.1879 32.4994C19.3295 32.5002 19.4655 32.4447 19.566 32.345L24.8908 27.0202C25.0996 26.8114 25.0996 26.4728 24.8908 26.264C24.682 26.0552 24.3435 26.0552 24.1347 26.264L18.8099 31.5889C18.709 31.6889 18.6523 31.825 18.6523 31.9669C18.6523 32.1089 18.709 32.245 18.8099 32.345C18.9103 32.4447 19.0464 32.5002 19.1879 32.4994Z" fill="#D80027"/>
<path d="M46.8771 16.5254H33.0325C32.1503 16.5254 31.4351 17.2406 31.4351 18.1228V23.9802H19.1879C17.7175 23.9802 16.5255 25.1722 16.5255 26.6426V40.4873C16.5255 41.9577 17.7175 43.1497 19.1879 43.1497H25.0452V45.2796H23.4478C22.5655 45.2796 21.8503 45.9948 21.8503 46.8771C21.8503 47.7593 22.5655 48.4745 23.4478 48.4745H46.8771C47.7594 48.4745 48.4746 47.7593 48.4746 46.8771V18.1228C48.4746 17.2406 47.7594 16.5254 46.8771 16.5254ZM19.1879 25.0452H38.3574C39.2396 25.0452 39.9548 25.7604 39.9548 26.6426V39.4223H17.5904V26.6426C17.5904 25.7604 18.3056 25.0452 19.1879 25.0452ZM17.5904 40.4873H39.9548C39.9548 41.3695 39.2396 42.0847 38.3574 42.0847H19.1879C18.3056 42.0847 17.5904 41.3695 17.5904 40.4873ZM26.1102 43.1497H31.4351V45.2796H26.1102V43.1497ZM33.0325 47.4096H23.4478C23.1537 47.4096 22.9153 47.1712 22.9153 46.8771C22.9153 46.583 23.1537 46.3446 23.4478 46.3446H34.0975C34.3916 46.3446 34.63 46.583 34.63 46.8771C34.63 47.1712 34.3916 47.4096 34.0975 47.4096H33.0325ZM47.4096 46.8771C47.4096 47.1712 47.1712 47.4096 46.8771 47.4096H35.5991C35.7717 46.9214 35.697 46.3798 35.3986 45.9566C35.1003 45.5334 34.6153 45.2811 34.0975 45.2796H32.5V43.1497H38.3574C39.8278 43.1497 41.0198 41.9577 41.0198 40.4873V26.6426C41.0198 25.1722 39.8278 23.9802 38.3574 23.9802H32.5V18.1228C32.5 17.8288 32.7384 17.5904 33.0325 17.5904H46.8771C47.1712 17.5904 47.4096 17.8288 47.4096 18.1228V46.8771Z" fill="#D80027"/>
<path d="M45.2797 19.1875H34.63C34.0418 19.1875 33.565 19.6643 33.565 20.2525V21.3174C33.565 21.9056 34.0418 22.3824 34.63 22.3824H45.2797C45.8679 22.3824 46.3447 21.9056 46.3447 21.3174V20.2525C46.3447 19.6643 45.8679 19.1875 45.2797 19.1875ZM34.63 21.3174V20.2525H45.2797V21.3174H34.63Z" fill="#D80027"/>
<path d="M44.2147 27.1754C45.097 27.1754 45.8122 26.4602 45.8122 25.5779C45.8122 24.6957 45.097 23.9805 44.2147 23.9805C43.3325 23.9805 42.6172 24.6957 42.6172 25.5779C42.6172 26.4602 43.3325 27.1754 44.2147 27.1754ZM44.2147 25.0454C44.5088 25.0454 44.7472 25.2838 44.7472 25.5779C44.7472 25.872 44.5088 26.1104 44.2147 26.1104C43.9206 26.1104 43.6822 25.872 43.6822 25.5779C43.6822 25.2838 43.9206 25.0454 44.2147 25.0454Z" fill="#D80027"/>
<path d="M45.8122 29.8374C45.8122 28.9552 45.097 28.24 44.2147 28.24C43.3325 28.24 42.6172 28.9552 42.6172 29.8374C42.6172 30.7197 43.3325 31.4349 44.2147 31.4349C45.097 31.4349 45.8122 30.7197 45.8122 29.8374ZM44.2147 30.3699C43.9206 30.3699 43.6822 30.1315 43.6822 29.8374C43.6822 29.5434 43.9206 29.305 44.2147 29.305C44.5088 29.305 44.7472 29.5434 44.7472 29.8374C44.7472 30.1315 44.5088 30.3699 44.2147 30.3699Z" fill="#D80027"/>
<path d="M37.2924 44.2146C36.9984 44.2146 36.7599 44.453 36.7599 44.7471V45.8121C36.7599 46.1061 36.9984 46.3445 37.2924 46.3445C37.5865 46.3445 37.8249 46.1061 37.8249 45.8121V44.7471C37.8249 44.453 37.5865 44.2146 37.2924 44.2146Z" fill="#D80027"/>
<path d="M39.4223 44.2146C39.1282 44.2146 38.8898 44.453 38.8898 44.7471V45.8121C38.8898 46.1061 39.1282 46.3445 39.4223 46.3445C39.7164 46.3445 39.9548 46.1061 39.9548 45.8121V44.7471C39.9548 44.453 39.7164 44.2146 39.4223 44.2146Z" fill="#D80027"/>
<path d="M41.5523 44.2146C41.2582 44.2146 41.0198 44.453 41.0198 44.7471V45.8121C41.0198 46.1061 41.2582 46.3445 41.5523 46.3445C41.8463 46.3445 42.0847 46.1061 42.0847 45.8121V44.7471C42.0847 44.453 41.8463 44.2146 41.5523 44.2146Z" fill="#D80027"/>
<path d="M43.6823 44.2146C43.3882 44.2146 43.1498 44.453 43.1498 44.7471V45.8121C43.1498 46.1061 43.3882 46.3445 43.6823 46.3445C43.9764 46.3445 44.2148 46.1061 44.2148 45.8121V44.7471C44.2148 44.453 43.9764 44.2146 43.6823 44.2146Z" fill="#D80027"/>
<path d="M45.8122 44.2146C45.5181 44.2146 45.2797 44.453 45.2797 44.7471V45.8121C45.2797 46.1061 45.5181 46.3445 45.8122 46.3445C46.1063 46.3445 46.3447 46.1061 46.3447 45.8121V44.7471C46.3447 44.453 46.1063 44.2146 45.8122 44.2146Z" fill="#D80027"/>
</g>
<defs>
<clipPath id="clip0_1_271">
<rect width="31.9492" height="31.9492" fill="white" transform="translate(16.5255 16.5254)"/>
</clipPath>
</defs>
</svg>
