<svg width="65" height="65" viewBox="0 0 65 65" fill="none" xmlns="http://www.w3.org/2000/svg">
<circle cx="32.5" cy="32.5" r="32.5" fill="white"/>
<g clip-path="url(#clip0_1_252)">
<path d="M38.7441 17.6272H26.2559C25.0522 17.6272 24.072 18.6073 24.072 19.811V45.1886C24.072 46.3928 25.0522 47.373 26.2559 47.373H38.7436C39.9478 47.373 40.928 46.3928 40.928 45.1891V19.811C40.928 18.6073 39.9478 17.6272 38.7441 17.6272ZM25.0636 21.5933H39.9364V40.4323H25.0636V21.5933ZM26.2559 18.6187H38.7436C39.4015 18.6187 39.9364 19.1537 39.9364 19.811V20.6018H25.0636V19.811C25.0636 19.1537 25.5985 18.6187 26.2559 18.6187ZM38.7441 46.3814H26.2559C25.5985 46.3814 25.0636 45.8465 25.0636 45.1891V41.4238H39.9364V45.1891C39.9364 45.8465 39.4015 46.3814 38.7441 46.3814Z" fill="#D80027"/>
<path d="M32.5 41.9202C31.4064 41.9202 30.517 42.8096 30.517 43.9032C30.517 44.9969 31.4064 45.8863 32.5 45.8863C33.5937 45.8863 34.4831 44.9969 34.4831 43.9032C34.4831 42.8096 33.5937 41.9202 32.5 41.9202ZM32.5 44.8947C31.9532 44.8947 31.5085 44.45 31.5085 43.9032C31.5085 43.3564 31.9532 42.9117 32.5 42.9117C33.0469 42.9117 33.4916 43.3564 33.4916 43.9032C33.4916 44.45 33.0469 44.8947 32.5 44.8947Z" fill="#D80027"/>
<path d="M30.517 20.1051H32.5C32.7742 20.1051 32.9958 19.8834 32.9958 19.6093C32.9958 19.3351 32.7742 19.1135 32.5 19.1135H30.517C30.2428 19.1135 30.0212 19.3351 30.0212 19.6093C30.0212 19.8834 30.2428 20.1051 30.517 20.1051Z" fill="#D80027"/>
<path d="M33.9873 20.1051H34.4831C34.7572 20.1051 34.9788 19.8834 34.9788 19.6093C34.9788 19.3351 34.7572 19.1135 34.4831 19.1135H33.9873C33.7131 19.1135 33.4915 19.3351 33.4915 19.6093C33.4915 19.8834 33.7131 20.1051 33.9873 20.1051Z" fill="#D80027"/>
<path d="M45.6932 19.8917C45.4993 19.6979 45.186 19.6979 44.9922 19.8917C44.7983 20.0856 44.7983 20.3989 44.9922 20.5927C46.8444 22.4449 46.8444 25.4586 44.9922 27.3113C44.7983 27.5051 44.7983 27.8185 44.9922 28.0123C45.0889 28.109 45.2158 28.1576 45.3427 28.1576C45.4696 28.1576 45.5965 28.109 45.6932 28.0123C47.9321 25.7739 47.9321 22.1306 45.6932 19.8917Z" fill="#D80027"/>
<path d="M43.6056 21.0206C43.4118 20.8268 43.0984 20.8268 42.9046 21.0206C42.7108 21.2145 42.7108 21.5278 42.9046 21.7216C43.5179 22.3349 43.8555 23.1519 43.8555 24.0215C43.8555 24.891 43.5179 25.7076 42.9046 26.3208C42.7108 26.5147 42.7108 26.828 42.9046 27.0218C43.0013 27.1185 43.1282 27.1671 43.2551 27.1671C43.382 27.1671 43.5089 27.1185 43.6056 27.0218C44.4063 26.2217 44.847 25.1558 44.847 24.0215C44.847 22.8872 44.4068 21.8208 43.6056 21.0206Z" fill="#D80027"/>
<path d="M20.0078 20.5927C20.2016 20.3989 20.2016 20.0856 20.0078 19.8917C19.814 19.6979 19.5006 19.6979 19.3068 19.8917C17.0679 22.1306 17.0679 25.7734 19.3068 28.0123C19.4035 28.109 19.5304 28.1576 19.6573 28.1576C19.7842 28.1576 19.9111 28.109 20.0078 28.0123C20.2016 27.8185 20.2016 27.5051 20.0078 27.3113C18.1551 25.4591 18.1551 22.4454 20.0078 20.5927Z" fill="#D80027"/>
<path d="M22.0954 20.8839C21.9016 20.6901 21.5883 20.6901 21.3944 20.8839C20.5938 21.6841 20.153 22.75 20.153 23.8843C20.153 25.0186 20.5938 26.0845 21.3944 26.8851C21.4911 26.9818 21.618 27.0304 21.7449 27.0304C21.8719 27.0304 21.9988 26.9818 22.0954 26.8851C22.2893 26.6913 22.2893 26.378 22.0954 26.1841C21.4822 25.5708 21.1446 24.7538 21.1446 23.8843C21.1446 23.0147 21.4817 22.1982 22.0954 21.5849C22.2888 21.3916 22.2888 21.0778 22.0954 20.8839Z" fill="#D80027"/>
</g>
<defs>
<clipPath id="clip0_1_252">
<rect width="29.7458" height="29.7458" fill="white" transform="translate(17.6271 17.6272)"/>
</clipPath>
</defs>
</svg>
