<svg width="65" height="65" viewBox="0 0 65 65" fill="none" xmlns="http://www.w3.org/2000/svg">
<circle cx="32.5" cy="32.5" r="32.5" fill="white"/>
<g clip-path="url(#clip0_1_327)">
<path d="M45.7204 18.178H20.3814C18.2528 18.1804 16.5279 19.9053 16.5255 22.0339V44.0678C16.5279 46.1964 18.2528 47.9213 20.3814 47.9237H45.7204C47.8489 47.9213 49.5739 46.1964 49.5763 44.0678V22.0339C49.5739 19.9053 47.8489 18.1804 45.7204 18.178ZM48.4746 44.0678C48.4728 45.5882 47.2407 46.8202 45.7204 46.822H20.3814C18.861 46.8202 17.629 45.5882 17.6271 44.0678V22.0339C17.629 20.5135 18.861 19.2815 20.3814 19.2797H45.7204C47.2407 19.2815 48.4728 20.5135 48.4746 22.0339V44.0678Z" fill="#D80027"/>
<path d="M45.7204 22.5842H20.3814C19.4688 22.5842 18.7289 23.3241 18.7289 24.2368V44.0673C18.7289 44.98 19.4688 45.7198 20.3814 45.7198H45.7204C46.6331 45.7198 47.3729 44.98 47.3729 44.0673V24.2368C47.3729 23.3241 46.6331 22.5842 45.7204 22.5842ZM33.0509 33.5263L27.0516 30.2961L33.0509 27.0659L39.0502 30.2961L33.0509 33.5263ZM39.6611 31.2182V37.6775L33.6018 40.9418V34.4825L39.6611 31.2182ZM32.5001 34.4825V40.9418L26.4407 37.6775V31.2182L32.5001 34.4825ZM19.8306 24.2368C19.8306 23.9325 20.0772 23.6859 20.3814 23.6859H32.5001V26.1097L25.6288 29.8113C25.6216 29.8152 25.6134 29.8169 25.6062 29.8213C25.4396 29.9213 25.3381 30.1018 25.3391 30.2961V34.9133L19.8306 37.6675V24.2368ZM46.2713 44.0673C46.2713 44.3715 46.0246 44.6181 45.7204 44.6181H20.3814C20.0772 44.6181 19.8306 44.3715 19.8306 44.0673V38.8992L25.3391 36.145V38.008C25.3392 38.2105 25.4504 38.3967 25.6288 38.4927L32.7898 42.3486C32.9528 42.4364 33.149 42.4364 33.312 42.3486L40.473 38.4927C40.6514 38.3967 40.7627 38.2105 40.7628 38.008V36.145L46.2713 38.8992V44.0673ZM46.2713 37.6675L40.7628 34.9133V30.2961C40.7627 30.1023 40.6608 29.9229 40.4945 29.8235C40.4874 29.8191 40.4791 29.8174 40.4719 29.8136L33.6018 26.1097V23.6859H45.7204C46.0246 23.6859 46.2713 23.9325 46.2713 24.2368V37.6675Z" fill="#D80027"/>
<path d="M19.8305 21.4828C20.1347 21.4828 20.3814 21.2362 20.3814 20.932C20.3814 20.6277 20.1347 20.3811 19.8305 20.3811C19.5263 20.3811 19.2797 20.6277 19.2797 20.932C19.2797 21.2362 19.5263 21.4828 19.8305 21.4828Z" fill="#D80027"/>
<path d="M22.0339 21.4828C22.3381 21.4828 22.5847 21.2362 22.5847 20.932C22.5847 20.6277 22.3381 20.3811 22.0339 20.3811C21.7297 20.3811 21.483 20.6277 21.483 20.932C21.483 21.2362 21.7297 21.4828 22.0339 21.4828Z" fill="#D80027"/>
<path d="M24.2373 21.4828C24.5415 21.4828 24.7882 21.2362 24.7882 20.932C24.7882 20.6277 24.5415 20.3811 24.2373 20.3811C23.9331 20.3811 23.6865 20.6277 23.6865 20.932C23.6865 21.2362 23.9331 21.4828 24.2373 21.4828Z" fill="#D80027"/>
<path d="M38.0085 21.4828H45.7204C46.0246 21.4828 46.2712 21.2362 46.2712 20.932C46.2712 20.6277 46.0246 20.3811 45.7204 20.3811H38.0085C37.7043 20.3811 37.4576 20.6277 37.4576 20.932C37.4576 21.2362 37.7043 21.4828 38.0085 21.4828Z" fill="#D80027"/>
</g>
<defs>
<clipPath id="clip0_1_327">
<rect width="33.0508" height="33.0508" fill="white" transform="translate(16.5255 16.5254)"/>
</clipPath>
</defs>
</svg>
