<svg width="65" height="65" viewBox="0 0 65 65" fill="none" xmlns="http://www.w3.org/2000/svg">
<circle cx="32.5" cy="32.5" r="32.5" fill="white"/>
<g clip-path="url(#clip0_1_313)">
<path d="M34.5671 40.9064C32.8811 41.469 31.0213 41.4689 29.3305 40.9062C28.8567 40.7484 28.3452 41.0047 28.1876 41.4782C28.03 41.9518 28.2861 42.4635 28.7597 42.6211C29.7894 42.9638 30.8703 43.1351 31.9509 43.1351C33.0316 43.1351 34.1119 42.9637 35.1392 42.6209C35.6126 42.4629 35.8684 41.9511 35.7103 41.4776C35.5524 41.0042 35.0406 40.7485 34.5671 40.9064Z" fill="#D80027"/>
<path d="M42.4768 23.5315C42.0921 20.7727 39.7232 18.5952 36.7892 18.5952H35.7568V18.5309C35.7568 18.0318 35.3522 17.6272 34.8531 17.6272H29.0451C28.546 17.6272 28.1414 18.0318 28.1414 18.5309V18.5952H27.1091C24.1997 18.5952 21.8275 20.7423 21.424 23.5309C19.73 23.9164 18.4614 25.4338 18.4614 27.2429V34.9869C18.4614 37.4635 20.4787 38.4728 21.3951 38.6906C21.8089 44.266 26.4904 48.4747 31.9491 48.4747C37.5159 48.4747 42.0925 44.1545 42.5027 38.6909C44.878 38.127 45.4368 35.972 45.4368 34.987V27.2429C45.4369 25.4347 44.1695 23.918 42.4768 23.5315ZM35.7568 20.4026H36.7891C39.3462 20.4026 40.4025 22.4933 40.6221 23.4352H35.7568V20.4026ZM29.9489 19.4347H33.9494V23.4352H29.9489V19.4347ZM27.1091 20.4026H28.1414V23.4352H23.2798C23.866 20.9797 26.0905 20.4026 27.1091 20.4026ZM31.9491 46.6672C27.4886 46.6672 23.6757 43.2881 23.2188 38.7946H27.6754C28.7844 38.7946 29.8695 38.3452 30.6524 37.5617C30.6571 37.5571 30.6617 37.5524 30.6662 37.5476C31.0062 37.215 31.4727 37.0247 31.9491 37.0247C32.4257 37.0247 32.8921 37.2151 33.2321 37.5477C33.2366 37.5524 33.2412 37.5571 33.2459 37.5617C34.0288 38.3452 35.1139 38.7946 36.2229 38.7946H40.6791C40.2253 43.2109 36.4833 46.6672 31.9491 46.6672ZM43.6294 34.987C43.6294 36.1054 42.7178 36.9872 41.6291 36.9872H36.2229C35.5968 36.9872 34.9843 36.7365 34.5391 36.2986C34.5342 36.2935 34.5293 36.2885 34.5243 36.2834C33.8467 35.6058 32.9082 35.2172 31.9492 35.2172C30.9903 35.2172 30.0517 35.6058 29.3741 36.2834C29.3691 36.2884 29.3641 36.2935 29.3593 36.2986C28.914 36.7365 28.3015 36.9872 27.6754 36.9872H22.2691C21.1839 36.9872 20.2688 36.1092 20.2688 34.987V27.2429C20.2688 26.14 21.1662 25.2427 22.2691 25.2427H41.6291C42.732 25.2427 43.6293 26.1401 43.6293 27.2429V34.987H43.6294Z" fill="#D80027"/>
</g>
<defs>
<clipPath id="clip0_1_313">
<rect width="30.8475" height="30.8475" fill="white" transform="translate(16.5254 17.6272)"/>
</clipPath>
</defs>
</svg>
