<svg width="65" height="65" viewBox="0 0 65 65" fill="none" xmlns="http://www.w3.org/2000/svg">
<circle cx="32.5" cy="32.5" r="32.5" fill="white"/>
<g clip-path="url(#clip0_1_345)">
<path d="M47.3522 42.4493L46.6907 39.9802C46.6046 39.6588 46.2741 39.4678 45.9528 39.5542C45.6313 39.6403 45.4405 39.9707 45.5267 40.2921L45.8163 41.373L41.5886 38.9614V28.9382C41.5886 28.7225 41.4733 28.5233 41.2863 28.4158L32.5507 23.3935V18.6208L33.3297 19.3998C33.5651 19.635 33.9465 19.635 34.1819 19.3998C34.4172 19.1645 34.4172 18.783 34.1819 18.5476L32.3743 16.74C32.1387 16.5036 31.753 16.5083 31.5222 16.74L29.7146 18.5476C29.4793 18.7829 29.4793 19.1644 29.7146 19.3998C29.9499 19.635 30.3314 19.635 30.5667 19.3998L31.3457 18.6208V23.3945L22.6688 28.4167C22.4826 28.5244 22.368 28.7232 22.368 28.9382V38.864L18.0808 41.3002L18.3709 40.2173C18.457 39.8959 18.2662 39.5655 17.9448 39.4794C17.6233 39.3931 17.293 39.584 17.2069 39.9055L16.5453 42.3752C16.4616 42.6879 16.6488 43.0359 16.9894 43.1179L19.4406 43.7747C19.7646 43.8615 20.0931 43.6674 20.1785 43.3486C20.2647 43.0272 20.0739 42.6969 19.7525 42.6107L18.7069 42.3306L22.962 39.9126L31.6805 45.0465C31.8671 45.1564 32.0989 45.1579 32.2872 45.0493L34.4974 43.7752C34.7857 43.609 34.8846 43.2405 34.7184 42.9523C34.5522 42.664 34.1838 42.5651 33.8955 42.7312L31.9895 43.83L24.1707 39.2259L31.9103 34.8278L39.7991 39.3279L38.5922 40.0237C38.3039 40.1898 38.2049 40.5583 38.3711 40.8465C38.5373 41.1349 38.9058 41.2339 39.194 41.0676L41.0118 40.0196L45.1923 42.4044L44.1453 42.6849C43.8239 42.771 43.6331 43.1014 43.7193 43.4228C43.8049 43.7426 44.1342 43.9355 44.4572 43.8488L46.872 43.2019C47.2168 43.141 47.4447 42.7944 47.3522 42.4493ZM40.3835 38.2739L32.5507 33.8058V24.7835L40.3835 29.2868V38.2739ZM23.5731 29.2856L31.3456 24.787V33.7625L23.5731 38.1792V29.2856Z" fill="#D80027"/>
<path d="M36.5274 42.4726C36.8602 42.4726 37.1299 42.2029 37.1299 41.8701C37.1299 41.5373 36.8602 41.2676 36.5274 41.2676C36.1946 41.2676 35.9249 41.5373 35.9249 41.8701C35.9249 42.2029 36.1946 42.4726 36.5274 42.4726Z" fill="#D80027"/>
</g>
<defs>
<clipPath id="clip0_1_345">
<rect width="30.8475" height="30.8475" fill="white" transform="translate(16.5255 15.4238)"/>
</clipPath>
</defs>
</svg>
